<svg width="16" height="16" xmlns="http://www.w3.org/2000/svg" class="bi bi-keyboard">
  <path id="svg_1" d="m14,5l-12,0a1,1 0 0 0 -1,1l0,5a1,1 0 0 0 1,1l12,0a1,1 0 0 0 1,-1l0,-5a1,1 0 0 0 -1,-1zm-12,-1a2,2 0 0 0 -2,2l0,5a2,2 0 0 0 2,2l12,0a2,2 0 0 0 2,-2l0,-5a2,2 0 0 0 -2,-2l-12,0z" fill-rule="evenodd"/>
  <path fill="#88c0d0" id="svg_2" d="m13,10.25a0.25,0.25 0 0 1 0.25,-0.25l0.5,0a0.25,0.25 0 0 1 0.25,0.25l0,0.5a0.25,0.25 0 0 1 -0.25,0.25l-0.5,0a0.25,0.25 0 0 1 -0.25,-0.25l0,-0.5zm0,-2a0.25,0.25 0 0 1 0.25,-0.25l0.5,0a0.25,0.25 0 0 1 0.25,0.25l0,0.5a0.25,0.25 0 0 1 -0.25,0.25l-0.5,0a0.25,0.25 0 0 1 -0.25,-0.25l0,-0.5zm-5,0a0.25,0.25 0 0 1 0.25,-0.25l0.5,0a0.25,0.25 0 0 1 0.25,0.25l0,0.5a0.25,0.25 0 0 1 -0.25,0.25l-0.5,0a0.25,0.25 0 0 1 -0.25,-0.25l0,-0.5zm2,0a0.25,0.25 0 0 1 0.25,-0.25l1.5,0a0.25,0.25 0 0 1 0.25,0.25l0,0.5a0.25,0.25 0 0 1 -0.25,0.25l-1.5,0a0.25,0.25 0 0 1 -0.25,-0.25l0,-0.5zm1,2a0.25,0.25 0 0 1 0.25,-0.25l0.5,0a0.25,0.25 0 0 1 0.25,0.25l0,0.5a0.25,0.25 0 0 1 -0.25,0.25l-0.5,0a0.25,0.25 0 0 1 -0.25,-0.25l0,-0.5zm-5,-2a0.25,0.25 0 0 1 0.25,-0.25l0.5,0a0.25,0.25 0 0 1 0.25,0.25l0,0.5a0.25,0.25 0 0 1 -0.25,0.25l-0.5,0a0.25,0.25 0 0 1 -0.25,-0.25l0,-0.5zm-2,0a0.25,0.25 0 0 1 0.25,-0.25l0.5,0a0.25,0.25 0 0 1 0.25,0.25l0,0.5a0.25,0.25 0 0 1 -0.25,0.25l-0.5,0a0.25,0.25 0 0 1 -0.25,-0.25l0,-0.5zm-2,0a0.25,0.25 0 0 1 0.25,-0.25l0.5,0a0.25,0.25 0 0 1 0.25,0.25l0,0.5a0.25,0.25 0 0 1 -0.25,0.25l-0.5,0a0.25,0.25 0 0 1 -0.25,-0.25l0,-0.5zm11,-2a0.25,0.25 0 0 1 0.25,-0.25l0.5,0a0.25,0.25 0 0 1 0.25,0.25l0,0.5a0.25,0.25 0 0 1 -0.25,0.25l-0.5,0a0.25,0.25 0 0 1 -0.25,-0.25l0,-0.5zm-2,0a0.25,0.25 0 0 1 0.25,-0.25l0.5,0a0.25,0.25 0 0 1 0.25,0.25l0,0.5a0.25,0.25 0 0 1 -0.25,0.25l-0.5,0a0.25,0.25 0 0 1 -0.25,-0.25l0,-0.5zm-2,0a0.25,0.25 0 0 1 0.25,-0.25l0.5,0a0.25,0.25 0 0 1 0.25,0.25l0,0.5a0.25,0.25 0 0 1 -0.25,0.25l-0.5,0a0.25,0.25 0 0 1 -0.25,-0.25l0,-0.5zm-2,0a0.25,0.25 0 0 1 0.25,-0.25l0.5,0a0.25,0.25 0 0 1 0.25,0.25l0,0.5a0.25,0.25 0 0 1 -0.25,0.25l-0.5,0a0.25,0.25 0 0 1 -0.25,-0.25l0,-0.5zm-2,0a0.25,0.25 0 0 1 0.25,-0.25l0.5,0a0.25,0.25 0 0 1 0.25,0.25l0,0.5a0.25,0.25 0 0 1 -0.25,0.25l-0.5,0a0.25,0.25 0 0 1 -0.25,-0.25l0,-0.5zm-3,0a0.25,0.25 0 0 1 0.25,-0.25l1.5,0a0.25,0.25 0 0 1 0.25,0.25l0,0.5a0.25,0.25 0 0 1 -0.25,0.25l-1.5,0a0.25,0.25 0 0 1 -0.25,-0.25l0,-0.5zm0,4a0.25,0.25 0 0 1 0.25,-0.25l0.5,0a0.25,0.25 0 0 1 0.25,0.25l0,0.5a0.25,0.25 0 0 1 -0.25,0.25l-0.5,0a0.25,0.25 0 0 1 -0.25,-0.25l0,-0.5zm2,0a0.25,0.25 0 0 1 0.25,-0.25l5.5,0a0.25,0.25 0 0 1 0.25,0.25l0,0.5a0.25,0.25 0 0 1 -0.25,0.25l-5.5,0a0.25,0.25 0 0 1 -0.25,-0.25l0,-0.5z"/>
</svg>